<svg xmlns="http://www.w3.org/2000/svg" viewBox="0 0 223 240">
<path d="M26.1,41.3L54.1,41.3C55.1,41.3 56.1,41.5 56.9,42L63.6,46C64.3,46.5 65,47.1 65.5,47.9L79.5,71.9C80,72.7 80.3,73.6 80.3,74.6L80.3,82.6C80.3,83.6 80,84.5 79.5,85.3L65.5,109.3C65,110.1 64.3,110.8 63.6,111.2L56.9,115.2C56.1,115.7 55.1,116 54.1,116L26.1,116C25.1,116 24.2,115.8 23.3,115.2L16.7,111.2C15.9,110.8 15.3,110.1 14.8,109.3L0.7,85.3C0.2,84.5 0,83.6 0,82.6L0,74.6C0,73.6 0.2,72.7 0.7,71.9L14.8,47.9C15.3,47.1 15.9,46.5 16.7,46L23.3,42C24.2,41.5 25.1,41.2 26.1,41.2L26.1,41.3Z" fill="#05e2e9"/>
<path d="M26.1,123.7L54.1,123.7C55.1,123.7 56.1,123.9 56.9,124.4L63.6,128.4C64.3,128.9 65,129.6 65.5,130.3L79.5,154.3C80,155.1 80.3,156.1 80.3,157L80.3,165.1C80.3,166 80,167 79.5,167.8L65.5,191.8C65,192.5 64.3,193.2 63.6,193.6L56.9,197.7C56.1,198.2 55.1,198.4 54.1,198.4L26.1,198.4C25.1,198.4 24.2,198.2 23.3,197.7L16.7,193.6C15.9,193.2 15.3,192.5 14.8,191.8L0.7,167.8C0.2,167 0,166 0,165.1L0,157C0,156.1 0.2,155.1 0.7,154.3L14.8,130.3C15.3,129.6 15.9,128.9 16.7,128.4L23.3,124.4C24.2,123.9 25.1,123.6 26.1,123.6L26.1,123.7Z" fill="#009ca0"/>
<path d="M169,41.3L197,41.3C198,41.3 199,41.5 199.8,42L206.5,46C207.3,46.5 207.9,47.1 208.4,47.9L222.4,71.9C222.9,72.7 223.2,73.6 223.2,74.6L223.2,82.6C223.2,83.6 222.9,84.5 222.4,85.3L208.4,109.3C207.9,110.1 207.3,110.8 206.5,111.2L199.8,115.2C199,115.7 198,116 197,116L169,116C168,116 167.1,115.8 166.2,115.2L159.6,111.2C158.8,110.8 158.2,110.1 157.7,109.3L143.6,85.3C143.2,84.5 142.9,83.6 142.9,82.6L142.9,74.6C142.9,73.6 143.2,72.7 143.6,71.9L157.7,47.9C158.2,47.1 158.8,46.5 159.6,46L166.2,42C167.1,41.5 168,41.2 169,41.2L169,41.3Z" fill="#05e2e9"/>
<path d="M169,123.7L197,123.7C198,123.7 199,123.9 199.8,124.4L206.5,128.4C207.3,128.9 207.9,129.6 208.4,130.3L222.4,154.3C222.9,155.1 223.2,156.1 223.2,157L223.2,165.1C223.2,166 222.9,167 222.4,167.8L208.4,191.8C207.9,192.5 207.3,193.2 206.5,193.6L199.8,197.7C199,198.2 198,198.4 197,198.4L169,198.4C168,198.4 167.1,198.2 166.2,197.7L159.6,193.6C158.8,193.2 158.2,192.5 157.7,191.8L143.6,167.8C143.2,167 142.9,166 142.9,165.1L142.9,157C142.9,156.1 143.2,155.1 143.6,154.3L157.7,130.3C158.2,129.6 158.8,128.9 159.6,128.4L166.2,124.4C167.1,123.9 168,123.6 169,123.6L169,123.7Z" fill="#009ca0"/>
<path d="M97.6,82.5L125.7,82.5C126.7,82.5 127.6,82.7 128.4,83.2L135.1,87.2C135.9,87.7 136.5,88.3 137,89.1L151.1,113.1C151.5,113.9 151.8,114.9 151.8,115.8L151.8,123.9C151.8,124.8 151.5,125.7 151.1,126.6L137,150.5C136.5,151.3 135.9,152 135.1,152.4L128.4,156.4C127.6,156.9 126.7,157.2 125.7,157.2L97.6,157.2C96.7,157.2 95.7,157 94.9,156.4L88.2,152.4C87.4,152 86.8,151.3 86.3,150.5L72.3,126.6C71.8,125.7 71.5,124.8 71.5,123.9L71.5,115.8C71.5,114.9 71.8,113.9 72.3,113.1L86.3,89.1C86.8,88.3 87.4,87.7 88.2,87.2L94.9,83.2C95.7,82.7 96.6,82.4 97.6,82.4L97.6,82.5Z" fill="#02ffed"/>
<path d="M97.6,164.9L125.7,164.9C126.7,164.9 127.6,165.2 128.4,165.6L135.1,169.7C135.9,170.1 136.5,170.8 137,171.6L151.1,195.5C151.5,196.4 151.8,197.3 151.8,198.2L151.8,206.3C151.8,207.2 151.5,208.2 151.1,209L137,233C136.5,233.8 135.9,234.4 135.1,234.9L128.4,238.9C127.6,239.4 126.7,239.7 125.7,239.7L97.6,239.7C96.7,239.7 95.7,239.4 94.9,238.9L88.2,234.9C87.4,234.4 86.8,233.8 86.3,233L72.3,209C71.8,208.2 71.5,207.2 71.5,206.3L71.5,198.2C71.5,197.3 71.8,196.4 72.3,195.5L86.3,171.6C86.8,170.8 87.4,170.1 88.2,169.7L94.9,165.6C95.7,165.2 96.6,164.9 97.6,164.9L97.6,164.9Z" fill="#009ca0"/>
<path d="M97.6,0L125.7,0C126.7,0 127.6,0.3 128.4,0.8L135.1,4.8C135.9,5.3 136.5,5.9 137,6.7L151.1,30.7C151.5,31.5 151.8,32.4 151.8,33.4L151.8,41.4C151.8,42.4 151.5,43.3 151.1,44.1L137,68.1C136.5,68.9 135.9,69.5 135.1,70L128.4,74C127.6,74.5 126.7,74.8 125.7,74.8L97.6,74.8C96.7,74.8 95.7,74.6 94.9,74L88.2,70C87.4,69.5 86.8,68.9 86.3,68.1L72.3,44.1C71.8,43.3 71.5,42.4 71.5,41.4L71.5,33.4C71.5,32.4 71.8,31.5 72.3,30.7L86.3,6.7C86.8,5.9 87.4,5.3 88.2,4.8L94.9,0.8C95.7,0.3 96.6,0 97.6,0L97.6,0Z" fill="#05e2e9"/>
</svg>
